# Blender v2.80 (sub 75) OBJ File: 'bacteriophage.blend'
# www.blender.org
mtllib centralTailFibre.mtl
o Cylinder.002_Cylinder
v 0.000000 -2.467501 -0.020000
v 0.000000 -2.187500 -0.020000
v 0.003902 -2.467501 -0.019616
v 0.003902 -2.187500 -0.019616
v 0.007654 -2.467501 -0.018478
v 0.007654 -2.187500 -0.018478
v 0.011111 -2.467501 -0.016629
v 0.011111 -2.187500 -0.016629
v 0.014142 -2.467501 -0.014142
v 0.014142 -2.187500 -0.014142
v 0.016629 -2.467501 -0.011111
v 0.016629 -2.187500 -0.011111
v 0.018478 -2.467501 -0.007654
v 0.018478 -2.187500 -0.007654
v 0.019616 -2.467501 -0.003902
v 0.019616 -2.187500 -0.003902
v 0.020000 -2.467501 -0.000000
v 0.020000 -2.187500 -0.000000
v 0.019616 -2.467501 0.003902
v 0.019616 -2.187500 0.003902
v 0.018478 -2.467501 0.007654
v 0.018478 -2.187500 0.007654
v 0.016629 -2.467501 0.011111
v 0.016629 -2.187500 0.011111
v 0.014142 -2.467501 0.014142
v 0.014142 -2.187500 0.014142
v 0.011111 -2.467501 0.016629
v 0.011111 -2.187500 0.016629
v 0.007654 -2.467501 0.018478
v 0.007654 -2.187500 0.018478
v 0.003902 -2.467501 0.019616
v 0.003902 -2.187500 0.019616
v -0.000000 -2.467501 0.020000
v -0.000000 -2.187500 0.020000
v -0.003902 -2.467501 0.019616
v -0.003902 -2.187500 0.019616
v -0.007654 -2.467501 0.018478
v -0.007654 -2.187500 0.018478
v -0.011111 -2.467501 0.016629
v -0.011111 -2.187500 0.016629
v -0.014142 -2.467501 0.014142
v -0.014142 -2.187500 0.014142
v -0.016629 -2.467501 0.011111
v -0.016629 -2.187500 0.011111
v -0.018478 -2.467501 0.007654
v -0.018478 -2.187500 0.007654
v -0.019616 -2.467501 0.003902
v -0.019616 -2.187500 0.003902
v -0.020000 -2.467501 -0.000000
v -0.020000 -2.187500 -0.000000
v -0.019616 -2.467501 -0.003902
v -0.019616 -2.187500 -0.003902
v -0.018478 -2.467501 -0.007654
v -0.018478 -2.187500 -0.007654
v -0.016629 -2.467501 -0.011111
v -0.016629 -2.187500 -0.011111
v -0.014142 -2.467501 -0.014142
v -0.014142 -2.187500 -0.014142
v -0.011111 -2.467501 -0.016629
v -0.011111 -2.187500 -0.016629
v -0.007654 -2.467501 -0.018478
v -0.007654 -2.187500 -0.018478
v -0.003902 -2.467501 -0.019616
v -0.003902 -2.187500 -0.019616
v 0.000000 -2.144371 0.180000
v 0.035116 -2.144371 0.176541
v 0.068883 -2.144371 0.166298
v 0.100003 -2.144371 0.149665
v 0.127279 -2.144371 0.127279
v 0.149665 -2.144371 0.100003
v 0.166298 -2.144371 0.068883
v 0.176541 -2.144371 0.035116
v 0.180000 -2.144371 0.000000
v 0.176541 -2.144371 -0.035116
v 0.166298 -2.144371 -0.068883
v 0.149665 -2.144371 -0.100003
v 0.127279 -2.144371 -0.127279
v 0.100003 -2.144371 -0.149665
v 0.068883 -2.144371 -0.166298
v 0.035116 -2.144371 -0.176541
v -0.000000 -2.144371 -0.180000
v -0.035116 -2.144371 -0.176541
v -0.068883 -2.144371 -0.166298
v -0.100003 -2.144371 -0.149664
v -0.127279 -2.144371 -0.127279
v -0.149665 -2.144371 -0.100003
v -0.166298 -2.144371 -0.068883
v 0.000000 -2.223534 0.000000
v -0.176541 -2.144371 -0.035116
v -0.180000 -2.144371 0.000000
v -0.176541 -2.144371 0.035116
v -0.166298 -2.144371 0.068883
v -0.149664 -2.144371 0.100003
v -0.127279 -2.144371 0.127279
v -0.100002 -2.144371 0.149665
v -0.068883 -2.144371 0.166298
v -0.035116 -2.144371 0.176541
v 0.000000 -2.044501 0.240000
v 0.000000 -2.144501 0.180000
v 0.046822 -2.044501 0.235388
v 0.035116 -2.144501 0.176541
v 0.091844 -2.044501 0.221731
v 0.068883 -2.144501 0.166298
v 0.133337 -2.044501 0.199553
v 0.100003 -2.144501 0.149665
v 0.169706 -2.044501 0.169706
v 0.127279 -2.144501 0.127279
v 0.199553 -2.044501 0.133337
v 0.149665 -2.144501 0.100003
v 0.221731 -2.044501 0.091844
v 0.166298 -2.144501 0.068883
v 0.235388 -2.044501 0.046822
v 0.176541 -2.144501 0.035116
v 0.240000 -2.044501 0.000000
v 0.180000 -2.144500 0.000000
v 0.235388 -2.044501 -0.046822
v 0.176541 -2.144500 -0.035116
v 0.221731 -2.044501 -0.091844
v 0.166298 -2.144500 -0.068883
v 0.199553 -2.044501 -0.133337
v 0.149665 -2.144500 -0.100003
v 0.169706 -2.044501 -0.169706
v 0.127279 -2.144500 -0.127279
v 0.133337 -2.044501 -0.199553
v 0.100003 -2.144500 -0.149665
v 0.091844 -2.044501 -0.221731
v 0.068883 -2.144500 -0.166298
v 0.046822 -2.044501 -0.235388
v 0.035116 -2.144500 -0.176541
v -0.000000 -2.044501 -0.240000
v -0.000000 -2.144500 -0.180000
v -0.046822 -2.044501 -0.235388
v -0.035116 -2.144500 -0.176541
v -0.091844 -2.044501 -0.221731
v -0.068883 -2.144500 -0.166298
v -0.133337 -2.044501 -0.199553
v -0.100003 -2.144500 -0.149664
v -0.169706 -2.044501 -0.169706
v -0.127279 -2.144500 -0.127279
v -0.199553 -2.044501 -0.133337
v -0.149665 -2.144500 -0.100003
v -0.221731 -2.044501 -0.091844
v -0.166298 -2.144500 -0.068883
v -0.235389 -2.044501 -0.046821
v -0.176541 -2.144500 -0.035116
v -0.240000 -2.044501 0.000000
v -0.180000 -2.144500 0.000000
v -0.235388 -2.044501 0.046822
v -0.176541 -2.144501 0.035116
v -0.221731 -2.044501 0.091844
v -0.166298 -2.144501 0.068883
v -0.199553 -2.044501 0.133337
v -0.149664 -2.144501 0.100003
v -0.169705 -2.044501 0.169706
v -0.127279 -2.144501 0.127279
v -0.133337 -2.044501 0.199553
v -0.100002 -2.144501 0.149665
v -0.091844 -2.044501 0.221731
v -0.068883 -2.144501 0.166298
v -0.046821 -2.044501 0.235389
v -0.035116 -2.144501 0.176541
vt 1.000000 0.500000
vt 1.000000 1.000000
vt 0.968750 1.000000
vt 0.968750 0.500000
vt 0.937500 1.000000
vt 0.937500 0.500000
vt 0.906250 1.000000
vt 0.906250 0.500000
vt 0.875000 1.000000
vt 0.875000 0.500000
vt 0.843750 1.000000
vt 0.843750 0.500000
vt 0.812500 1.000000
vt 0.812500 0.500000
vt 0.781250 1.000000
vt 0.781250 0.500000
vt 0.750000 1.000000
vt 0.750000 0.500000
vt 0.718750 1.000000
vt 0.718750 0.500000
vt 0.687500 1.000000
vt 0.687500 0.500000
vt 0.656250 1.000000
vt 0.656250 0.500000
vt 0.625000 1.000000
vt 0.625000 0.500000
vt 0.593750 1.000000
vt 0.593750 0.500000
vt 0.562500 1.000000
vt 0.562500 0.500000
vt 0.531250 1.000000
vt 0.531250 0.500000
vt 0.500000 1.000000
vt 0.500000 0.500000
vt 0.468750 1.000000
vt 0.468750 0.500000
vt 0.437500 1.000000
vt 0.437500 0.500000
vt 0.406250 1.000000
vt 0.406250 0.500000
vt 0.375000 1.000000
vt 0.375000 0.500000
vt 0.343750 1.000000
vt 0.343750 0.500000
vt 0.312500 1.000000
vt 0.312500 0.500000
vt 0.281250 1.000000
vt 0.281250 0.500000
vt 0.250000 1.000000
vt 0.250000 0.500000
vt 0.218750 1.000000
vt 0.218750 0.500000
vt 0.187500 1.000000
vt 0.187500 0.500000
vt 0.156250 1.000000
vt 0.156250 0.500000
vt 0.125000 1.000000
vt 0.125000 0.500000
vt 0.093750 1.000000
vt 0.093750 0.500000
vt 0.062500 1.000000
vt 0.062500 0.500000
vt 0.296822 0.485388
vt 0.250000 0.490000
vt 0.203179 0.485389
vt 0.158156 0.471731
vt 0.116663 0.449553
vt 0.080295 0.419706
vt 0.050447 0.383337
vt 0.028269 0.341844
vt 0.014612 0.296822
vt 0.010000 0.250000
vt 0.014612 0.203179
vt 0.028269 0.158156
vt 0.050447 0.116663
vt 0.080294 0.080294
vt 0.116663 0.050447
vt 0.158156 0.028269
vt 0.203178 0.014612
vt 0.250000 0.010000
vt 0.296822 0.014612
vt 0.341844 0.028269
vt 0.383337 0.050447
vt 0.419706 0.080294
vt 0.449553 0.116663
vt 0.471731 0.158156
vt 0.485388 0.203178
vt 0.490000 0.250000
vt 0.485388 0.296822
vt 0.471731 0.341844
vt 0.449553 0.383337
vt 0.419706 0.419706
vt 0.383337 0.449553
vt 0.341844 0.471731
vt 0.031250 1.000000
vt 0.031250 0.500000
vt 0.000000 1.000000
vt 0.000000 0.500000
vt 0.750000 0.490000
vt 0.796822 0.485388
vt 0.841844 0.471731
vt 0.883337 0.449553
vt 0.919706 0.419706
vt 0.949553 0.383337
vt 0.971731 0.341844
vt 0.985388 0.296822
vt 0.990000 0.250000
vt 0.985388 0.203178
vt 0.971731 0.158156
vt 0.949553 0.116663
vt 0.919706 0.080294
vt 0.883337 0.050447
vt 0.841844 0.028269
vt 0.796822 0.014612
vt 0.750000 0.010000
vt 0.703178 0.014612
vt 0.658156 0.028269
vt 0.616663 0.050447
vt 0.580294 0.080294
vt 0.550447 0.116663
vt 0.528269 0.158156
vt 0.514611 0.203179
vt 0.510000 0.250000
vt 0.514612 0.296822
vt 0.528269 0.341844
vt 0.550447 0.383337
vt 0.580295 0.419706
vt 0.616663 0.449553
vt 0.658156 0.471731
vt 0.703179 0.485389
vt 0.250000 0.490000
vt 0.250000 0.250000
vt 0.296822 0.485388
vt 0.341844 0.471731
vt 0.383337 0.449553
vt 0.419706 0.419706
vt 0.449553 0.383337
vt 0.471731 0.341844
vt 0.485388 0.296822
vt 0.490000 0.250000
vt 0.485388 0.203178
vt 0.471731 0.158156
vt 0.449553 0.116663
vt 0.419706 0.080294
vt 0.383337 0.050447
vt 0.341844 0.028269
vt 0.296822 0.014612
vt 0.250000 0.010000
vt 0.203178 0.014612
vt 0.158156 0.028269
vt 0.116663 0.050447
vt 0.080294 0.080294
vt 0.050447 0.116663
vt 0.028269 0.158156
vt 0.014611 0.203179
vt 0.010000 0.250000
vt 0.014612 0.296822
vt 0.028269 0.341844
vt 0.050447 0.383337
vt 0.080295 0.419706
vt 0.116663 0.449553
vt 0.158156 0.471731
vt 0.203179 0.485389
vt 0.750000 0.490000
vt 0.796822 0.485388
vt 0.841844 0.471731
vt 0.883337 0.449553
vt 0.919706 0.419706
vt 0.949553 0.383337
vt 0.971731 0.341844
vt 0.985388 0.296822
vt 0.990000 0.250000
vt 0.985388 0.203178
vt 0.971731 0.158156
vt 0.949553 0.116663
vt 0.919706 0.080294
vt 0.883337 0.050447
vt 0.841844 0.028269
vt 0.796822 0.014612
vt 0.750000 0.010000
vt 0.703178 0.014612
vt 0.658156 0.028269
vt 0.616663 0.050447
vt 0.580294 0.080294
vt 0.550447 0.116663
vt 0.528269 0.158156
vt 0.514611 0.203179
vt 0.510000 0.250000
vt 0.514612 0.296822
vt 0.528269 0.341844
vt 0.550447 0.383337
vt 0.580295 0.419706
vt 0.616663 0.449553
vt 0.658156 0.471731
vt 0.703179 0.485389
vt 1.000000 0.500000
vt 1.000000 1.000000
vt 0.968750 1.000000
vt 0.968750 0.500000
vt 0.937500 1.000000
vt 0.937500 0.500000
vt 0.906250 1.000000
vt 0.906250 0.500000
vt 0.875000 1.000000
vt 0.875000 0.500000
vt 0.843750 1.000000
vt 0.843750 0.500000
vt 0.812500 1.000000
vt 0.812500 0.500000
vt 0.781250 1.000000
vt 0.781250 0.500000
vt 0.750000 1.000000
vt 0.750000 0.500000
vt 0.718750 1.000000
vt 0.718750 0.500000
vt 0.687500 1.000000
vt 0.687500 0.500000
vt 0.656250 1.000000
vt 0.656250 0.500000
vt 0.625000 1.000000
vt 0.625000 0.500000
vt 0.593750 1.000000
vt 0.593750 0.500000
vt 0.562500 1.000000
vt 0.562500 0.500000
vt 0.531250 1.000000
vt 0.531250 0.500000
vt 0.500000 1.000000
vt 0.500000 0.500000
vt 0.468750 1.000000
vt 0.468750 0.500000
vt 0.437500 1.000000
vt 0.437500 0.500000
vt 0.406250 1.000000
vt 0.406250 0.500000
vt 0.375000 1.000000
vt 0.375000 0.500000
vt 0.343750 1.000000
vt 0.343750 0.500000
vt 0.312500 1.000000
vt 0.312500 0.500000
vt 0.281250 1.000000
vt 0.281250 0.500000
vt 0.250000 1.000000
vt 0.250000 0.500000
vt 0.218750 1.000000
vt 0.218750 0.500000
vt 0.187500 1.000000
vt 0.187500 0.500000
vt 0.156250 1.000000
vt 0.156250 0.500000
vt 0.125000 1.000000
vt 0.125000 0.500000
vt 0.093750 1.000000
vt 0.093750 0.500000
vt 0.062500 1.000000
vt 0.062500 0.500000
vt 0.296822 0.485388
vt 0.250000 0.490000
vt 0.203179 0.485389
vt 0.158156 0.471731
vt 0.116663 0.449553
vt 0.080295 0.419706
vt 0.050447 0.383337
vt 0.028269 0.341844
vt 0.014612 0.296822
vt 0.010000 0.250000
vt 0.014611 0.203179
vt 0.028269 0.158156
vt 0.050447 0.116663
vt 0.080294 0.080294
vt 0.116663 0.050447
vt 0.158156 0.028269
vt 0.203178 0.014612
vt 0.250000 0.010000
vt 0.296822 0.014612
vt 0.341844 0.028269
vt 0.383337 0.050447
vt 0.419706 0.080294
vt 0.449553 0.116663
vt 0.471731 0.158156
vt 0.485388 0.203178
vt 0.490000 0.250000
vt 0.485388 0.296822
vt 0.471731 0.341844
vt 0.449553 0.383337
vt 0.419706 0.419706
vt 0.383337 0.449553
vt 0.341844 0.471731
vt 0.031250 1.000000
vt 0.031250 0.500000
vt 0.000000 1.000000
vt 0.000000 0.500000
vt 0.750000 0.490000
vt 0.796822 0.485388
vt 0.841844 0.471731
vt 0.883337 0.449553
vt 0.919706 0.419706
vt 0.949553 0.383337
vt 0.971731 0.341844
vt 0.985388 0.296822
vt 0.990000 0.250000
vt 0.985388 0.203178
vt 0.971731 0.158156
vt 0.949553 0.116663
vt 0.919706 0.080294
vt 0.883337 0.050447
vt 0.841844 0.028269
vt 0.796822 0.014612
vt 0.750000 0.010000
vt 0.703178 0.014612
vt 0.658156 0.028269
vt 0.616663 0.050447
vt 0.580294 0.080294
vt 0.550447 0.116663
vt 0.528269 0.158156
vt 0.514611 0.203179
vt 0.510000 0.250000
vt 0.514612 0.296822
vt 0.528269 0.341844
vt 0.550447 0.383337
vt 0.580295 0.419706
vt 0.616663 0.449553
vt 0.658156 0.471731
vt 0.703179 0.485389
vn 0.0980 0.0000 -0.9952
vn 0.2903 0.0000 -0.9569
vn 0.4714 0.0000 -0.8819
vn 0.6344 0.0000 -0.7730
vn 0.7730 0.0000 -0.6344
vn 0.8819 0.0000 -0.4714
vn 0.9569 0.0000 -0.2903
vn 0.9952 0.0000 -0.0980
vn 0.9952 0.0000 0.0980
vn 0.9569 0.0000 0.2903
vn 0.8819 0.0000 0.4714
vn 0.7730 0.0000 0.6344
vn 0.6344 0.0000 0.7730
vn 0.4714 0.0000 0.8819
vn 0.2903 0.0000 0.9569
vn 0.0980 0.0000 0.9952
vn -0.0980 0.0000 0.9952
vn -0.2903 0.0000 0.9569
vn -0.4714 0.0000 0.8819
vn -0.6344 0.0000 0.7730
vn -0.7730 0.0000 0.6344
vn -0.8819 0.0000 0.4714
vn -0.9569 0.0000 0.2903
vn -0.9952 0.0000 0.0980
vn -0.9952 0.0000 -0.0980
vn -0.9569 0.0000 -0.2903
vn -0.8819 0.0000 -0.4714
vn -0.7730 0.0000 -0.6344
vn -0.6344 0.0000 -0.7730
vn -0.4714 0.0000 -0.8819
vn 0.0000 1.0000 0.0000
vn -0.2903 0.0000 -0.9569
vn -0.0980 0.0000 -0.9952
vn 0.0000 -1.0000 0.0000
vn 0.0396 -0.9147 0.4023
vn 0.1173 -0.9147 0.3868
vn 0.1905 -0.9147 0.3565
vn 0.2564 -0.9147 0.3125
vn 0.3125 -0.9147 0.2564
vn 0.3565 -0.9147 0.1905
vn 0.3868 -0.9147 0.1173
vn 0.4023 -0.9147 0.0396
vn 0.4023 -0.9147 -0.0396
vn 0.3868 -0.9147 -0.1173
vn 0.3565 -0.9147 -0.1905
vn 0.3125 -0.9147 -0.2564
vn 0.2564 -0.9147 -0.3125
vn 0.1905 -0.9147 -0.3565
vn 0.1173 -0.9147 -0.3868
vn 0.0396 -0.9147 -0.4023
vn -0.0396 -0.9147 -0.4023
vn -0.1173 -0.9147 -0.3868
vn -0.1905 -0.9147 -0.3565
vn -0.2564 -0.9147 -0.3125
vn -0.3125 -0.9147 -0.2564
vn -0.3565 -0.9147 -0.1905
vn -0.3868 -0.9147 -0.1173
vn -0.4023 -0.9147 -0.0396
vn -0.4023 -0.9147 0.0396
vn -0.3868 -0.9147 0.1173
vn -0.3565 -0.9147 0.1905
vn -0.3125 -0.9147 0.2564
vn -0.2564 -0.9147 0.3125
vn -0.1905 -0.9147 0.3565
vn -0.1173 -0.9147 0.3868
vn -0.0396 -0.9147 0.4023
vn 0.0842 -0.5127 0.8545
vn 0.2492 -0.5127 0.8216
vn 0.4047 -0.5127 0.7572
vn 0.5447 -0.5127 0.6637
vn 0.6637 -0.5127 0.5447
vn 0.7572 -0.5127 0.4047
vn 0.8216 -0.5127 0.2492
vn 0.8545 -0.5127 0.0842
vn 0.8545 -0.5127 -0.0842
vn 0.8216 -0.5127 -0.2492
vn 0.7572 -0.5127 -0.4047
vn 0.6637 -0.5127 -0.5447
vn 0.5447 -0.5127 -0.6637
vn 0.4047 -0.5127 -0.7572
vn 0.2492 -0.5127 -0.8216
vn 0.0842 -0.5127 -0.8545
vn -0.0842 -0.5127 -0.8545
vn -0.2492 -0.5127 -0.8216
vn -0.4047 -0.5127 -0.7572
vn -0.5447 -0.5127 -0.6637
vn -0.6637 -0.5127 -0.5447
vn -0.7572 -0.5127 -0.4047
vn -0.8216 -0.5127 -0.2492
vn -0.8545 -0.5127 -0.0842
vn -0.8545 -0.5127 0.0842
vn -0.8216 -0.5127 0.2492
vn -0.7572 -0.5127 0.4047
vn -0.6637 -0.5127 0.5447
vn -0.5447 -0.5127 0.6637
vn -0.4047 -0.5127 0.7572
vn -0.2492 -0.5127 0.8216
vn -0.0842 -0.5127 0.8545
usemtl Material.005
s off
f 1/1/1 2/2/1 4/3/1 3/4/1
f 3/4/2 4/3/2 6/5/2 5/6/2
f 5/6/3 6/5/3 8/7/3 7/8/3
f 7/8/4 8/7/4 10/9/4 9/10/4
f 9/10/5 10/9/5 12/11/5 11/12/5
f 11/12/6 12/11/6 14/13/6 13/14/6
f 13/14/7 14/13/7 16/15/7 15/16/7
f 15/16/8 16/15/8 18/17/8 17/18/8
f 17/18/9 18/17/9 20/19/9 19/20/9
f 19/20/10 20/19/10 22/21/10 21/22/10
f 21/22/11 22/21/11 24/23/11 23/24/11
f 23/24/12 24/23/12 26/25/12 25/26/12
f 25/26/13 26/25/13 28/27/13 27/28/13
f 27/28/14 28/27/14 30/29/14 29/30/14
f 29/30/15 30/29/15 32/31/15 31/32/15
f 31/32/16 32/31/16 34/33/16 33/34/16
f 33/34/17 34/33/17 36/35/17 35/36/17
f 35/36/18 36/35/18 38/37/18 37/38/18
f 37/38/19 38/37/19 40/39/19 39/40/19
f 39/40/20 40/39/20 42/41/20 41/42/20
f 41/42/21 42/41/21 44/43/21 43/44/21
f 43/44/22 44/43/22 46/45/22 45/46/22
f 45/46/23 46/45/23 48/47/23 47/48/23
f 47/48/24 48/47/24 50/49/24 49/50/24
f 49/50/25 50/49/25 52/51/25 51/52/25
f 51/52/26 52/51/26 54/53/26 53/54/26
f 53/54/27 54/53/27 56/55/27 55/56/27
f 55/56/28 56/55/28 58/57/28 57/58/28
f 57/58/29 58/57/29 60/59/29 59/60/29
f 59/60/30 60/59/30 62/61/30 61/62/30
f 4/63/31 2/64/31 64/65/31 62/66/31 60/67/31 58/68/31 56/69/31 54/70/31 52/71/31 50/72/31 48/73/31 46/74/31 44/75/31 42/76/31 40/77/31 38/78/31 36/79/31 34/80/31 32/81/31 30/82/31 28/83/31 26/84/31 24/85/31 22/86/31 20/87/31 18/88/31 16/89/31 14/90/31 12/91/31 10/92/31 8/93/31 6/94/31
f 61/62/32 62/61/32 64/95/32 63/96/32
f 63/96/33 64/95/33 2/97/33 1/98/33
f 1/99/34 3/100/34 5/101/34 7/102/34 9/103/34 11/104/34 13/105/34 15/106/34 17/107/34 19/108/34 21/109/34 23/110/34 25/111/34 27/112/34 29/113/34 31/114/34 33/115/34 35/116/34 37/117/34 39/118/34 41/119/34 43/120/34 45/121/34 47/122/34 49/123/34 51/124/34 53/125/34 55/126/34 57/127/34 59/128/34 61/129/34 63/130/34
f 65/131/35 88/132/35 66/133/35
f 66/133/36 88/132/36 67/134/36
f 67/134/37 88/132/37 68/135/37
f 68/135/38 88/132/38 69/136/38
f 69/136/39 88/132/39 70/137/39
f 70/137/40 88/132/40 71/138/40
f 71/138/41 88/132/41 72/139/41
f 72/139/42 88/132/42 73/140/42
f 73/140/43 88/132/43 74/141/43
f 74/141/44 88/132/44 75/142/44
f 75/142/45 88/132/45 76/143/45
f 76/143/46 88/132/46 77/144/46
f 77/144/47 88/132/47 78/145/47
f 78/145/48 88/132/48 79/146/48
f 79/146/49 88/132/49 80/147/49
f 80/147/50 88/132/50 81/148/50
f 81/148/51 88/132/51 82/149/51
f 82/149/52 88/132/52 83/150/52
f 83/150/53 88/132/53 84/151/53
f 84/151/54 88/132/54 85/152/54
f 85/152/55 88/132/55 86/153/55
f 86/153/56 88/132/56 87/154/56
f 87/154/57 88/132/57 89/155/57
f 89/155/58 88/132/58 90/156/58
f 90/156/59 88/132/59 91/157/59
f 91/157/60 88/132/60 92/158/60
f 92/158/61 88/132/61 93/159/61
f 93/159/62 88/132/62 94/160/62
f 94/160/63 88/132/63 95/161/63
f 95/161/64 88/132/64 96/162/64
f 96/162/65 88/132/65 97/163/65
f 97/163/66 88/132/66 65/131/66
f 65/164/31 66/165/31 67/166/31 68/167/31 69/168/31 70/169/31 71/170/31 72/171/31 73/172/31 74/173/31 75/174/31 76/175/31 77/176/31 78/177/31 79/178/31 80/179/31 81/180/31 82/181/31 83/182/31 84/183/31 85/184/31 86/185/31 87/186/31 89/187/31 90/188/31 91/189/31 92/190/31 93/191/31 94/192/31 95/193/31 96/194/31 97/195/31
f 98/196/67 99/197/67 101/198/67 100/199/67
f 100/199/68 101/198/68 103/200/68 102/201/68
f 102/201/69 103/200/69 105/202/69 104/203/69
f 104/203/70 105/202/70 107/204/70 106/205/70
f 106/205/71 107/204/71 109/206/71 108/207/71
f 108/207/72 109/206/72 111/208/72 110/209/72
f 110/209/73 111/208/73 113/210/73 112/211/73
f 112/211/74 113/210/74 115/212/74 114/213/74
f 114/213/75 115/212/75 117/214/75 116/215/75
f 116/215/76 117/214/76 119/216/76 118/217/76
f 118/217/77 119/216/77 121/218/77 120/219/77
f 120/219/78 121/218/78 123/220/78 122/221/78
f 122/221/79 123/220/79 125/222/79 124/223/79
f 124/223/80 125/222/80 127/224/80 126/225/80
f 126/225/81 127/224/81 129/226/81 128/227/81
f 128/227/82 129/226/82 131/228/82 130/229/82
f 130/229/83 131/228/83 133/230/83 132/231/83
f 132/231/84 133/230/84 135/232/84 134/233/84
f 134/233/85 135/232/85 137/234/85 136/235/85
f 136/235/86 137/234/86 139/236/86 138/237/86
f 138/237/87 139/236/87 141/238/87 140/239/87
f 140/239/88 141/238/88 143/240/88 142/241/88
f 142/241/89 143/240/89 145/242/89 144/243/89
f 144/243/90 145/242/90 147/244/90 146/245/90
f 146/245/91 147/244/91 149/246/91 148/247/91
f 148/247/92 149/246/92 151/248/92 150/249/92
f 150/249/93 151/248/93 153/250/93 152/251/93
f 152/251/94 153/250/94 155/252/94 154/253/94
f 154/253/95 155/252/95 157/254/95 156/255/95
f 156/255/96 157/254/96 159/256/96 158/257/96
f 101/258/34 99/259/34 161/260/34 159/261/34 157/262/34 155/263/34 153/264/34 151/265/34 149/266/34 147/267/34 145/268/34 143/269/34 141/270/34 139/271/34 137/272/34 135/273/34 133/274/34 131/275/34 129/276/34 127/277/34 125/278/34 123/279/34 121/280/34 119/281/34 117/282/34 115/283/34 113/284/34 111/285/34 109/286/34 107/287/34 105/288/34 103/289/34
f 158/257/97 159/256/97 161/290/97 160/291/97
f 160/291/98 161/290/98 99/292/98 98/293/98
f 98/294/31 100/295/31 102/296/31 104/297/31 106/298/31 108/299/31 110/300/31 112/301/31 114/302/31 116/303/31 118/304/31 120/305/31 122/306/31 124/307/31 126/308/31 128/309/31 130/310/31 132/311/31 134/312/31 136/313/31 138/314/31 140/315/31 142/316/31 144/317/31 146/318/31 148/319/31 150/320/31 152/321/31 154/322/31 156/323/31 158/324/31 160/325/31
