# Blender v2.80 (sub 75) OBJ File: 'sodiumPotassiumPump.blend'
# www.blender.org
mtllib potassium.mtl
o potassium.001_Cube.003
v -0.230394 -1.479182 -0.001923
v -0.230394 -1.229182 -0.001923
v 0.019606 -1.479182 -0.001923
v 0.019606 -1.229182 -0.001923
v -0.230394 -1.354182 -0.251923
v 0.019606 -1.354182 -0.251923
vt 0.500000 0.500000
vt 0.375000 0.750000
vt 0.000000 0.000000
vt 0.000000 0.000000
vt 0.000000 0.000000
vt 0.625000 0.750000
vn 0.0000 -0.8944 -0.4472
vn -1.0000 0.0000 0.0000
vn 1.0000 0.0000 0.0000
vn 0.0000 0.8944 -0.4472
vn 0.0000 0.0000 1.0000
usemtl Material.233
s off
f 6/1/1 3/2/1 1/3/1 5/4/1
f 2/5/2 5/4/2 1/3/2
f 3/2/3 6/1/3 4/6/3
f 5/4/4 2/5/4 4/6/4 6/1/4
f 1/3/5 3/2/5 4/6/5 2/5/5
o potassium.000_Cube.004
v 0.088320 -1.649427 1.738978
v 0.088320 -1.399427 1.738978
v 0.338320 -1.649427 1.738978
v 0.338320 -1.399427 1.738978
v 0.088320 -1.524427 1.488978
v 0.338320 -1.524427 1.488978
vt 0.500000 0.500000
vt 0.375000 0.750000
vt 0.000000 0.000000
vt 0.000000 0.000000
vt 0.000000 0.000000
vt 0.625000 0.750000
vn 0.0000 -0.8944 -0.4472
vn -1.0000 0.0000 0.0000
vn 1.0000 0.0000 0.0000
vn 0.0000 0.8944 -0.4472
vn 0.0000 0.0000 1.0000
usemtl Material.234
s off
f 12/7/6 9/8/6 7/9/6 11/10/6
f 8/11/7 11/10/7 7/9/7
f 9/8/8 12/7/8 10/12/8
f 11/10/9 8/11/9 10/12/9 12/7/9
f 7/9/10 9/8/10 10/12/10 8/11/10
o potassium.002_Cube.005
v -0.400521 -1.704756 -1.045864
v -0.400521 -1.454756 -1.045864
v -0.150521 -1.704756 -1.045864
v -0.150521 -1.454756 -1.045864
v -0.400521 -1.579756 -1.295864
v -0.150521 -1.579756 -1.295864
vt 0.500000 0.500000
vt 0.375000 0.750000
vt 0.000000 0.000000
vt 0.000000 0.000000
vt 0.000000 0.000000
vt 0.625000 0.750000
vn 0.0000 -0.8944 -0.4472
vn -1.0000 0.0000 0.0000
vn 1.0000 0.0000 0.0000
vn 0.0000 0.8944 -0.4472
vn 0.0000 0.0000 1.0000
usemtl Material.235
s off
f 18/13/11 15/14/11 13/15/11 17/16/11
f 14/17/12 17/16/12 13/15/12
f 15/14/13 18/13/13 16/18/13
f 17/16/14 14/17/14 16/18/14 18/13/14
f 13/15/15 15/14/15 16/18/15 14/17/15
o potassium.003_Cube.006
v -0.457836 1.261755 -0.295175
v -0.457836 1.511755 -0.295175
v -0.207836 1.261755 -0.295175
v -0.207836 1.511755 -0.295175
v -0.457836 1.386755 -0.545175
v -0.207836 1.386755 -0.545175
vt 0.500000 0.500000
vt 0.375000 0.750000
vt 0.000000 0.000000
vt 0.000000 0.000000
vt 0.000000 0.000000
vt 0.625000 0.750000
vn 0.0000 -0.8944 -0.4472
vn -1.0000 0.0000 0.0000
vn 1.0000 0.0000 0.0000
vn 0.0000 0.8944 -0.4472
vn 0.0000 0.0000 1.0000
usemtl Material.236
s off
f 24/19/16 21/20/16 19/21/16 23/22/16
f 20/23/17 23/22/17 19/21/17
f 21/20/18 24/19/18 22/24/18
f 23/22/19 20/23/19 22/24/19 24/19/19
f 19/21/20 21/20/20 22/24/20 20/23/20
o potassium.004_Cube.007
v -0.068703 -1.370690 -1.419303
v -0.068703 -1.120690 -1.419303
v 0.181297 -1.370690 -1.419303
v 0.181297 -1.120690 -1.419303
v -0.068703 -1.245690 -1.669303
v 0.181297 -1.245690 -1.669303
vt 0.500000 0.500000
vt 0.375000 0.750000
vt 0.000000 0.000000
vt 0.000000 0.000000
vt 0.000000 0.000000
vt 0.625000 0.750000
vn 0.0000 -0.8944 -0.4472
vn -1.0000 0.0000 0.0000
vn 1.0000 0.0000 0.0000
vn 0.0000 0.8944 -0.4472
vn 0.0000 0.0000 1.0000
usemtl Material.237
s off
f 30/25/21 27/26/21 25/27/21 29/28/21
f 26/29/22 29/28/22 25/27/22
f 27/26/23 30/25/23 28/30/23
f 29/28/24 26/29/24 28/30/24 30/25/24
f 25/27/25 27/26/25 28/30/25 26/29/25
o potassium.005_Cube.008
v -0.146228 1.385182 1.511943
v -0.146228 1.635182 1.511943
v 0.103772 1.385182 1.511943
v 0.103772 1.635182 1.511943
v -0.146228 1.510182 1.261943
v 0.103772 1.510182 1.261943
vt 0.500000 0.500000
vt 0.375000 0.750000
vt 0.000000 0.000000
vt 0.000000 0.000000
vt 0.000000 0.000000
vt 0.625000 0.750000
vn 0.0000 -0.8944 -0.4472
vn -1.0000 0.0000 0.0000
vn 1.0000 0.0000 0.0000
vn 0.0000 0.8944 -0.4472
vn 0.0000 0.0000 1.0000
usemtl Material.238
s off
f 36/31/26 33/32/26 31/33/26 35/34/26
f 32/35/27 35/34/27 31/33/27
f 33/32/28 36/31/28 34/36/28
f 35/34/29 32/35/29 34/36/29 36/31/29
f 31/33/30 33/32/30 34/36/30 32/35/30
