{
    "asset" : {
        "generator" : "Khronos glTF Blender I/O v0.9.36",
        "version" : "2.0"
    },
    "scene" : 0,
    "scenes" : [
        {
            "name" : "Scene",
            "nodes" : [
                0,
                1,
                2,
                3,
                4,
                5,
                6
            ]
        }
    ],
    "nodes" : [
        {
            "name" : "Light",
            "rotation" : [
                0.16907575726509094,
                0.7558803558349609,
                -0.27217137813568115,
                0.570947527885437
            ],
            "translation" : [
                4.076245307922363,
                5.903861999511719,
                -1.0054539442062378
            ]
        },
        {
            "name" : "Camera",
            "rotation" : [
                0.483536034822464,
                0.33687159419059753,
                -0.20870360732078552,
                0.7804827094078064
            ],
            "translation" : [
                7.358891487121582,
                4.958309173583984,
                6.925790786743164
            ]
        },
        {
            "mesh" : 0,
            "name" : "capsule",
            "scale" : [
                1,
                1,
                2.9999992847442627
            ]
        },
        {
            "mesh" : 1,
            "name" : "cell.wall",
            "scale" : [
                0.8999999761581421,
                0.7948670387268066,
                2.849999189376831
            ],
            "translation" : [
                0,
                0.11130379140377045,
                0.05955760180950165
            ]
        },
        {
            "mesh" : 2,
            "name" : "plasma.membrane",
            "scale" : [
                0.800000011920929,
                0.6130346655845642,
                2.6999990940093994
            ],
            "translation" : [
                0,
                0.19713202118873596,
                0.09171491116285324
            ]
        },
        {
            "mesh" : 3,
            "name" : "cytoplasm",
            "scale" : [
                0.699999988079071,
                0.45717835426330566,
                2.549999237060547
            ],
            "translation" : [
                0,
                0.27245381474494934,
                0.14197587966918945
            ]
        },
        {
            "mesh" : 4,
            "name" : "BezierCurve",
            "rotation" : [
                0,
                0,
                0.7071067690849304,
                0.7071067690849304
            ],
            "scale" : [
                0.375,
                1,
                1
            ],
            "translation" : [
                0,
                1.3380545377731323,
                0
            ]
        }
    ],
    "materials" : [
        {
            "doubleSided" : true,
            "name" : "Material.001",
            "pbrMetallicRoughness" : {
                "baseColorFactor" : [
                    0.1318291872739792,
                    0.06797333806753159,
                    0.17774516344070435,
                    1
                ],
                "metallicFactor" : 0,
                "roughnessFactor" : 0.5
            }
        },
        {
            "doubleSided" : true,
            "name" : "Material.002",
            "pbrMetallicRoughness" : {
                "baseColorFactor" : [
                    0.8000000715255737,
                    0.19718554615974426,
                    0,
                    1
                ],
                "metallicFactor" : 0,
                "roughnessFactor" : 0.5
            }
        },
        {
            "doubleSided" : true,
            "name" : "Material.003",
            "pbrMetallicRoughness" : {
                "baseColorFactor" : [
                    0.8000000715255737,
                    0.583954930305481,
                    0.06835898011922836,
                    1
                ],
                "metallicFactor" : 0,
                "roughnessFactor" : 0.5
            }
        },
        {
            "doubleSided" : true,
            "name" : "Material.004",
            "pbrMetallicRoughness" : {
                "baseColorFactor" : [
                    0.8000000715255737,
                    0.7461029887199402,
                    0.2880464196205139,
                    1
                ],
                "metallicFactor" : 0,
                "roughnessFactor" : 0.5
            }
        }
    ],
    "meshes" : [
        {
            "name" : "Sphere",
            "primitives" : [
                {
                    "attributes" : {
                        "POSITION" : 0,
                        "NORMAL" : 1,
                        "TEXCOORD_0" : 2
                    },
                    "indices" : 3,
                    "material" : 0
                }
            ]
        },
        {
            "name" : "Sphere.001",
            "primitives" : [
                {
                    "attributes" : {
                        "POSITION" : 4,
                        "NORMAL" : 5,
                        "TEXCOORD_0" : 6
                    },
                    "indices" : 3,
                    "material" : 1
                }
            ]
        },
        {
            "name" : "Sphere.002",
            "primitives" : [
                {
                    "attributes" : {
                        "POSITION" : 7,
                        "NORMAL" : 8,
                        "TEXCOORD_0" : 9
                    },
                    "indices" : 3,
                    "material" : 2
                }
            ]
        },
        {
            "name" : "Sphere.003",
            "primitives" : [
                {
                    "attributes" : {
                        "POSITION" : 10,
                        "NORMAL" : 11,
                        "TEXCOORD_0" : 12
                    },
                    "indices" : 3,
                    "material" : 3
                }
            ]
        },
        {
            "name" : "BezierCurve.002",
            "primitives" : [
                {
                    "attributes" : {
                        "POSITION" : 13,
                        "NORMAL" : 14
                    },
                    "indices" : 15
                }
            ]
        }
    ],
    "accessors" : [
        {
            "bufferView" : 0,
            "componentType" : 5126,
            "count" : 1314,
            "max" : [
                1.000000238418579,
                0.9248502254486084,
                1.0000003576278687
            ],
            "min" : [
                -0.9999998211860657,
                -1,
                -1
            ],
            "type" : "VEC3"
        },
        {
            "bufferView" : 1,
            "componentType" : 5126,
            "count" : 1314,
            "type" : "VEC3"
        },
        {
            "bufferView" : 2,
            "componentType" : 5126,
            "count" : 1314,
            "type" : "VEC2"
        },
        {
            "bufferView" : 3,
            "componentType" : 5123,
            "count" : 1974,
            "type" : "SCALAR"
        },
        {
            "bufferView" : 4,
            "componentType" : 5126,
            "count" : 1314,
            "max" : [
                1.000000238418579,
                0.9248502254486084,
                1.0000003576278687
            ],
            "min" : [
                -0.9999998211860657,
                -1,
                -1
            ],
            "type" : "VEC3"
        },
        {
            "bufferView" : 5,
            "componentType" : 5126,
            "count" : 1314,
            "type" : "VEC3"
        },
        {
            "bufferView" : 6,
            "componentType" : 5126,
            "count" : 1314,
            "type" : "VEC2"
        },
        {
            "bufferView" : 7,
            "componentType" : 5126,
            "count" : 1314,
            "max" : [
                1.000000238418579,
                0.9248502254486084,
                1.0000003576278687
            ],
            "min" : [
                -0.9999998211860657,
                -1,
                -1
            ],
            "type" : "VEC3"
        },
        {
            "bufferView" : 8,
            "componentType" : 5126,
            "count" : 1314,
            "type" : "VEC3"
        },
        {
            "bufferView" : 9,
            "componentType" : 5126,
            "count" : 1314,
            "type" : "VEC2"
        },
        {
            "bufferView" : 10,
            "componentType" : 5126,
            "count" : 1314,
            "max" : [
                1.000000238418579,
                0.9248502254486084,
                1.0000003576278687
            ],
            "min" : [
                -0.9999998211860657,
                -1,
                -1
            ],
            "type" : "VEC3"
        },
        {
            "bufferView" : 11,
            "componentType" : 5126,
            "count" : 1314,
            "type" : "VEC3"
        },
        {
            "bufferView" : 12,
            "componentType" : 5126,
            "count" : 1314,
            "type" : "VEC2"
        },
        {
            "bufferView" : 13,
            "componentType" : 5126,
            "count" : 156,
            "max" : [
                1,
                0.01999935321509838,
                0.01999935321509838
            ],
            "min" : [
                -1.0073930025100708,
                -0.04310452938079834,
                -0.13598591089248657
            ],
            "type" : "VEC3"
        },
        {
            "bufferView" : 14,
            "componentType" : 5126,
            "count" : 156,
            "type" : "VEC3"
        },
        {
            "bufferView" : 15,
            "componentType" : 5123,
            "count" : 924,
            "type" : "SCALAR"
        }
    ],
    "bufferViews" : [
        {
            "buffer" : 0,
            "byteLength" : 15768,
            "byteOffset" : 0
        },
        {
            "buffer" : 0,
            "byteLength" : 15768,
            "byteOffset" : 15768
        },
        {
            "buffer" : 0,
            "byteLength" : 10512,
            "byteOffset" : 31536
        },
        {
            "buffer" : 0,
            "byteLength" : 3948,
            "byteOffset" : 42048
        },
        {
            "buffer" : 0,
            "byteLength" : 15768,
            "byteOffset" : 45996
        },
        {
            "buffer" : 0,
            "byteLength" : 15768,
            "byteOffset" : 61764
        },
        {
            "buffer" : 0,
            "byteLength" : 10512,
            "byteOffset" : 77532
        },
        {
            "buffer" : 0,
            "byteLength" : 15768,
            "byteOffset" : 88044
        },
        {
            "buffer" : 0,
            "byteLength" : 15768,
            "byteOffset" : 103812
        },
        {
            "buffer" : 0,
            "byteLength" : 10512,
            "byteOffset" : 119580
        },
        {
            "buffer" : 0,
            "byteLength" : 15768,
            "byteOffset" : 130092
        },
        {
            "buffer" : 0,
            "byteLength" : 15768,
            "byteOffset" : 145860
        },
        {
            "buffer" : 0,
            "byteLength" : 10512,
            "byteOffset" : 161628
        },
        {
            "buffer" : 0,
            "byteLength" : 1872,
            "byteOffset" : 172140
        },
        {
            "buffer" : 0,
            "byteLength" : 1872,
            "byteOffset" : 174012
        },
        {
            "buffer" : 0,
            "byteLength" : 1848,
            "byteOffset" : 175884
        }
    ],
    "buffers" : [
        {
            "byteLength" : 177732,
            "uri" : "data:application/octet-stream;base64,"
        }
    ]
}
